# xmcd CD database file
#
# Track frame offsets:
#	150
#	18573
#	41206
#	69971
#	93716
#	120974
#	149950
#	184954
#
# Disc length: 2652 seconds
#
# Revision: 0
# Processed by: cddbd v1.5.2PL0 Copyright (c) Steve Scherf et al.
# Submitted via: CDex 1.50beta10
#
DISCID=770a5a08
DTITLE=Charlie Mariano and Dieter Ilg - A La Carte
DYEAR=2001
DGENRE=Jazz
TTITLE0=Lopin´
TTITLE1=All The Things You Are
TTITLE2=Greenland
TTITLE3=Babe
TTITLE4=St. Louis Blues
TTITLE5=I Thougt  About You
TTITLE6=Randy
TTITLE7=Melangolo
EXTD=YEAR: 2001
EXTT0=
EXTT1=
EXTT2=
EXTT3=
EXTT4=
EXTT5=
EXTT6=
EXTT7=
PLAYORDER=
